<svg xmlns="http://www.w3.org/2000/svg" version="1.1" xmlns:xlink="http://www.w3.org/1999/xlink" xmlns:svgjs="http://svgjs.com/svgjs" width="1903" height="975" preserveAspectRatio="none" viewBox="0 0 1903 975"><g mask="url(&quot;#SvgjsMask1049&quot;)" fill="none"><rect width="1903" height="975" x="0" y="0" fill="rgba(27, 27, 27, 1)"></rect><path d="M530.07 0C635.56 76.72 642.07 177.45 732 177.45C804.04 177.45 776.12 56.64 854 0C898.12 -32.09 915 0 976 0C1098 0 1098 0 1220 0C1269.91 0 1285.04 -29.17 1319.82 0C1407.04 73.16 1407.61 204.65 1464 204.65C1512.4 204.65 1462.78 55.88 1529.4 0C1584.78 -46.45 1618.7 0 1708 0C1830 0 1891 -61 1952 0C2013 61 1952 122 1952 244C1952 366 1952 366 1952 488C1952 610 1952 610 1952 732C1952 825.54 1959.96 826.96 1952 919.07C1949.42 948.96 1957.02 969.91 1930.91 976C1835.02 998.37 1819.45 976 1708 976C1586 976 1586 976 1464 976C1342 976 1342 976 1220 976C1098 976 1098 976 976 976C854 976 854 976 732 976C640.5 976 582.95 1028.14 549 976C503.51 906.14 595.01 835.8 573.12 732C564.51 691.2 530.34 686.81 488 686.81C447.12 686.81 410.82 692.69 406.67 732C395.57 837.29 501.31 910.29 457.5 976C419.97 1032.29 350.75 976 244 976C141.52 976 129.53 998.16 39.04 976C7.53 968.28 5.45 950.31 0 916.24C-14.07 828.31 0 824.12 0 732C0 610 0 610 0 488C0 366 0 366 0 244C0 122 -61 61 0 0C61 -61 122 0 244 0C366 0 366 0 488 0C509.04 0 513.56 -12.01 530.07 0" stroke="rgba(185, 185, 185, 1)" stroke-width="2"></path><path d="M244 460.51C231.64 460.51 219.9 472.55 219.9 488C219.9 511.98 231.49 539.37 244 539.37C256.73 539.37 270.38 511.76 270.38 488C270.38 472.33 256.88 460.51 244 460.51" stroke="rgba(185, 185, 185, 1)" stroke-width="2"></path><path d="M1220 406.67C1190.24 406.67 1160.49 442.46 1160.49 488C1160.49 576.97 1190.24 675.69 1220 675.69C1249.76 675.69 1279.51 576.97 1279.51 488C1279.51 442.46 1249.76 406.67 1220 406.67" stroke="rgba(185, 185, 185, 1)" stroke-width="2"></path><path d="M976 728.13C971.48 728.13 967.59 728.11 967.59 732C967.59 745.29 967.22 762.5 976 762.5C988.85 762.5 1010.86 741.78 1010.86 732C1010.86 724.59 993.12 728.13 976 728.13" stroke="rgba(185, 185, 185, 1)" stroke-width="2"></path><path d="M1708 678.24C1678.87 678.24 1656.84 707.57 1656.84 732C1656.84 752.68 1680.34 768.46 1708 768.46C1749.98 768.46 1796.11 753.66 1796.11 732C1796.11 708.55 1748.51 678.24 1708 678.24" stroke="rgba(185, 185, 185, 1)" stroke-width="2"></path><path d="M89.47 244C89.47 172.89 30.34 168.86 0 86.12C-14.4 46.86 -22.88 20.18 0 0C25.92 -22.88 52.44 -14.51 97.6 0C174.44 24.7 175.68 31.75 244 78.43C354.24 153.75 350.46 159.94 454.73 244C472.46 258.3 473.57 257.55 488 275.15C573.57 379.55 654.73 392.84 654.73 488C654.73 561.02 568.19 611.51 488 611.51C417.23 611.51 418.46 551.75 352.81 488C296.46 433.29 297.13 374.59 244 374.59C193.02 374.59 144.59 424.26 144.59 488C144.59 586.91 190.37 596.46 244 699.89C253.63 718.46 262.28 713.06 271.11 732C326.67 851.12 381.89 893.97 372.78 976C368.34 1015.97 308.39 976 244 976C182.19 976 164.25 1009.14 120.37 976C42.25 917.02 47.33 887.71 0 791.76C-12.85 765.71 0 761.88 0 732C0 610 0 610 0 488C0 404.35 -26.25 392.27 0 320.69C18.49 270.27 89.47 290.18 89.47 244" stroke="rgba(185, 185, 185, 1)" stroke-width="2"></path><path d="M854 244C895.33 122.57 883.08 56.59 976 14.35C1066.08 -26.59 1122.06 13.11 1220 77.64C1296.35 127.94 1324.57 173.66 1324.57 244C1324.57 287.34 1261.5 262.54 1220 305C1142.27 384.54 1153.99 397.21 1086.1 488C1031.99 560.36 1037.84 631.3 976 631.3C902.19 631.3 843.22 578.25 814.79 488C782.22 384.6 814.72 359.4 854 244" stroke="rgba(185, 185, 185, 1)" stroke-width="2"></path><path d="M1554.37 244C1597.02 134.43 1539.98 83.07 1592.29 0C1616.8 -38.93 1650.14 0 1708 0C1830 0 1875.31 -45.31 1952 0C1997.31 26.78 1974.15 80.2 1952 144.18C1931.92 202.2 1867.54 193.11 1867.54 244C1867.54 297.92 1930.55 291.83 1952 353.8C1972.78 413.83 1952 420.9 1952 488C1952 599.84 2006.21 692.38 1952 711.67C1884.21 735.8 1818.83 569.12 1708 574.85C1622.05 579.29 1558.45 660.59 1558.45 732C1558.45 792.45 1637.19 780.43 1708 838.57C1785.77 902.43 1855.6 936.32 1855.6 976C1855.6 1005.04 1781.8 976 1708 976C1586 976 1586 976 1464 976C1342 976 1342 976 1220 976C1168.84 976 1117.68 996.72 1117.68 976C1117.68 947.16 1173.67 930.68 1220 876.88C1278.73 808.68 1299.43 814.43 1327.81 732C1366.38 619.99 1315.77 600.65 1353.9 488C1383.87 399.45 1403.08 403.76 1464 329.61C1503.31 281.76 1532.87 299.24 1554.37 244" stroke="rgba(185, 185, 185, 1)" stroke-width="2"></path><path d="M714.98 732C715.88 713.59 722.02 698.73 732 698.73C743.15 698.73 755.46 711.74 757.24 732C767.66 850.38 767.87 865.09 756.4 976C755.25 987.09 744.2 976 732 976C725.22 976 718.89 982.42 718.44 976C710.38 860.42 709.1 852.22 714.98 732" stroke="rgba(185, 185, 185, 1)" stroke-width="2"></path><path d="M191.13 244C191.13 217.24 215.38 187.36 244 187.36C277.86 187.36 316.09 217.68 316.09 244C316.09 268.34 278.4 288.68 244 288.68C215.92 288.68 191.13 267.9 191.13 244" stroke="rgba(185, 185, 185, 1)" stroke-width="2"></path><path d="M1667.33 244C1651.9 123.35 1638.46 100.31 1655.18 0C1658.79 -21.69 1681.59 0 1708 0C1830 0 1832.71 -2.71 1952 0C1954.71 0.06 1953.76 3.42 1952 5.55C1852.88 125.42 1828.56 113.22 1750.23 244C1706.56 316.9 1728.75 412.92 1708 412.92C1687.3 412.92 1678.31 329.81 1667.33 244" stroke="rgba(185, 185, 185, 1)" stroke-width="2"></path><path d="M0 407.83C19.72 407.83 69.28 442.78 69.28 488C69.28 560.81 18.1 643.89 0 643.89C-16.54 643.89 0 565.94 0 488C0 447.92 -14.92 407.83 0 407.83" stroke="rgba(185, 185, 185, 1)" stroke-width="2"></path><path d="M435.24 488C435.24 449.98 459.57 404.94 488 404.94C518.49 404.94 553.07 450.87 553.07 488C553.07 516.5 519.3 536.2 488 536.2C460.38 536.2 435.24 515.61 435.24 488" stroke="rgba(185, 185, 185, 1)" stroke-width="2"></path><path d="M923.71 488C923.71 424.76 953.63 348.57 976 348.57C997.63 348.57 1011.71 421.95 1011.71 488C1011.71 514.9 996.06 534.48 976 534.48C952.06 534.48 923.71 517.71 923.71 488" stroke="rgba(185, 185, 185, 1)" stroke-width="2"></path><path d="M1428.29 488C1428.29 458.23 1436.92 436.63 1464 436.63C1546.27 436.63 1647 433.27 1647 488C1647 571.57 1525.24 713.23 1464 713.23C1415.88 713.23 1428.29 596.53 1428.29 488" stroke="rgba(185, 185, 185, 1)" stroke-width="2"></path><path d="M201.71 976C201.71 941.74 222.49 879.88 244 879.88C265.66 879.88 288.06 942.08 288.06 976C288.06 990.14 266.03 976 244 976C222.86 976 201.71 989.8 201.71 976" stroke="rgba(185, 185, 185, 1)" stroke-width="2"></path><path d="M1574.91 976C1574.91 958.22 1646.22 908.69 1708 908.69C1748.92 908.69 1780.3 956.57 1780.3 976C1780.3 990.22 1744.15 976 1708 976C1641.45 976 1574.91 991.87 1574.91 976" stroke="rgba(185, 185, 185, 1)" stroke-width="2"></path></g><defs><mask id="SvgjsMask1049"><rect width="1903" height="975" fill="#ffffff"></rect></mask></defs></svg>